# xmcd
#
# Track frame offsets:
#   150
#   13292
#   23025
#   33516
#   45098
#   57664
#   72489
#   87764
#   99378
#   108737
#   119874
#   132030
#   145826
#   158786
#   169782
#   184393
#   196199
#   208614
#   220053
#   229578
#   243518
#   257018
#   268351
#   281563
#   295251
#
# Disc length: 4656 seconds
#
# Revision: 0
# Processed by: cddbd v1.5.1PL0 Copyright (c) Steve Scherf et al.
# Submitted via: uFREEDB ActiveX Control 1.5
#
DISCID=7c122e19
DTITLE=Roberto Carlos - Louco por Você
DYEAR=1961
DGENRE=Pop
TTITLE0=Não é por Mim
TTITLE1=Olhando Estrelas
TTITLE2=Só Você
TTITLE3=Mr. Sandman
TTITLE4=Ser Bem
TTITLE5=Chore por Mim
TTITLE6=Louco por Você
TTITLE7=Linda
TTITLE8=Chorei
TTITLE9=Se Você Gostou
TTITLE10=Solo Per Te
TTITLE11=Eternamente
TTITLE12=João e Maria (1958)
TTITLE13=Fora do Tom (1958)
TTITLE14=Canção do Amor Nenhum (1960)
TTITLE15=Brotinho sem Juizo (1960)
TTITLE16=Fim de Amor (1962)
TTITLE17=Malena (1962)
TTITLE18=Suzie (1962)
TTITLE19=Triste e Abandonado (1962)
TTITLE20=Tudo que Sonhei (1967)
TTITLE21=Fiquei tão Triste (1967)
TTITLE22=A Palavra Adeus (1978)
TTITLE23=L'ultima Cosa (1960)
TTITLE24=
EXTD=
EXTT0=
EXTT1=
EXTT2=
EXTT3=
EXTT4=
EXTT5=
EXTT6=
EXTT7=
EXTT8=
EXTT9=
EXTT10=
EXTT11=
EXTT12=
EXTT13=
EXTT14=
EXTT15=
EXTT16=
EXTT17=
EXTT18=
EXTT19=
EXTT20=
EXTT21=
EXTT22=
EXTT23=
EXTT24=
PLAYORDER=
